<?xml version="1.0" encoding="utf-8"?>
<!-- Generator: Adobe Illustrator 21.0.0, SVG Export Plug-In . SVG Version: 6.00 Build 0)  -->
<svg version="1.1" id="Layer_1" xmlns="http://www.w3.org/2000/svg" xmlns:xlink="http://www.w3.org/1999/xlink" x="0px" y="0px"
	 viewBox="0 0 1366 768" style="enable-background:new 0 0 1366 768;" xml:space="preserve">
<style type="text/css">
	.st0{fill:#FFFFFF;stroke:#FFFFFF;stroke-miterlimit:10;}
</style>
<g>
	<path class="st0" d="M308,359c0-19.5,0-22-13.5-31l-4.5-3c-2-2-2-7.5,0.5-9c11.5-4,40-17,51.5-24.5c2.5,0,4.5,1,5,3
		c-1,17.5-2,41.5-2,62v90c0,36,1,41,19,43.5l10.5,1.5c3.5,2.5,2.5,11-1,12.5c-15-1-29.5-1.5-47-1.5c-18,0-33,0.5-47,1.5
		c-3.5-1.5-4.5-10-1-12.5L289,490c18.5-2.5,19-7.5,19-43.5V359z M349.5,216.5c0,18-12.5,26-26.5,26c-15.5,0-25.5-11.5-25.5-25
		c0-16.5,12-27,27-27S349.5,202.5,349.5,216.5z"/>
	<path class="st0" d="M443,326.5c-8.5,0-8.5,1-8.5,14.5v105.5c0,36,1,42,19,43.5l18,1.5c3.5,2.5,2.5,11-1,12.5
		c-22.5-1-37-1.5-54.5-1.5c-18,0-33,0.5-48,1.5c-3.5-1.5-4.5-10-1-12.5l11.5-1.5c18.5-2.5,19-7.5,19-43.5V341c0-13.5,0-14.5-10-14.5
		H370c-3-2-3.5-6.5-1.5-9.5l21.5-10.5c4-2,7.5-5,7.5-10c0-29,3.5-60,15.5-88c12.5-28.5,40.5-63.5,90-63.5c26.5,0,49,12,49,30
		c0,10-9.5,18-19,18c-5.5,0-8.5-2-12-6c-9.5-11-23.5-22-40-22c-15.5,0-28,9.5-35.5,27.5c-9,23-11,59.5-11,84.5v14.5
		c0,13.5,0,14,8.5,14h57c5.5,5,2,19-3.5,21H443z"/>
</g>
</svg>
